<svg xmlns="http://www.w3.org/2000/svg" viewBox="40 40 430 430">
  <defs>
    <linearGradient id="fg" x1="0%" y1="0%" x2="100%" y2="100%">
      <stop stop-color="#EE4236" offset="0"/>
      <stop stop-color="#FAAC3D" offset="1"/>
    </linearGradient>
  </defs>
  <rect x="40" y="40" width="430" height="430" fill="#111" rx="48"/>
  <path fill="url(#fg)" d="M42.843,48.727c1.185,445.12-1.883,411.585,1.389,418.13c0.278,0.278,0.278,0.278,0.278,0.556c0.278,0.278,0.278,0.278,0.556,0.278c6.219,3.109-11.301,0.187,145.026,1.389H322.06c157.166-0.305,140.352,0.947,145.026-1.389c0.278,0,0.278-0.278,0.556-0.278c0.278-0.278,0.278-0.278,0.278-0.556c0.278-0.556,0.833-0.833,0.833-1.389c0.768-2.303,0.555-416.847,0.549-416.947v-1.43c0-2.337-1.915-4.221-4.252-4.182l-1.377,0.023c0,0-24.026,0.189-141.612-0.04H190.091C81.12,43.731,56.366,42.623,49.509,42.853h-2.578c-2.223,0-4.033,1.786-4.063,4.009L42.843,48.727z M326.227,457.411l-18.337-54.454h86.682l54.454,54.454H326.227z M62.847,457.411l54.454-54.454h86.682l-18.337,54.454H62.847z M185.646,54.561l18.337,54.454h-86.682L62.847,54.561H185.646z M449.027,54.561l-54.454,54.454H307.89l18.337-54.454H449.027z M327.894,319.609V192.642l63.345-63.345v253.379L327.894,319.609z M195.926,315.997V195.976h120.021v120.022H195.926z M183.979,192.364v126.967l-63.067,63.345V129.297L183.979,192.364z M382.626,120.962l-63.345,63.345h-36.673l21.115-63.345H382.626z M270.106,184.029H241.49l-21.115-63.345h70.846L270.106,184.029z M229.265,184.029h-36.951l-63.067-63.067h78.903L229.265,184.029z M108.966,117.35v277.272l-54.454,54.454V62.896L108.966,117.35z M129.247,391.01l63.345-63.345h36.673L208.15,391.01H129.247z M241.767,327.944h28.616l21.115,63.345h-71.124L241.767,327.944z M282.608,327.944h36.673l63.345,63.345h-78.903L282.608,327.944z M402.907,394.622V117.35l54.454-54.454v385.902L402.907,394.622z M313.725,54.561l-18.337,54.454h-78.903l-18.337-54.454H313.725z M198.148,457.411l18.337-54.454h78.903l18.337,54.454H198.148z"/>
</svg>
